<svg width="210" height="81" viewBox="0 0 210 81" xmlns="http://www.w3.org/2000/svg"><title>Group 3</title><g fill="none" fill-rule="evenodd"><path d="M31.746 23.424c0-1.44.21-2.79.63-4.05.42-1.26 1.026-2.358 1.818-3.294a8.629 8.629 0 0 1 2.862-2.214c1.116-.54 2.37-.81 3.762-.81 1.368 0 2.616.27 3.744.81a8.765 8.765 0 0 1 2.898 2.214c.804.936 1.422 2.034 1.854 3.294.432 1.26.648 2.61.648 4.05 0 1.488-.222 2.856-.666 4.104-.444 1.248-1.068 2.334-1.872 3.258a8.46 8.46 0 0 1-2.898 2.16c-1.128.516-2.364.774-3.708.774-1.416 0-2.682-.252-3.798-.756a8.054 8.054 0 0 1-2.844-2.124c-.78-.912-1.38-1.998-1.8-3.258-.42-1.26-.63-2.646-.63-4.158zm5.256-6.624c-1.032 1.464-1.548 3.672-1.548 6.624 0 1.464.138 2.748.414 3.852.276 1.104.654 2.022 1.134 2.754.48.732 1.044 1.278 1.692 1.638a4.3 4.3 0 0 0 2.124.54c.744 0 1.452-.18 2.124-.54.672-.36 1.248-.906 1.728-1.638.48-.732.864-1.65 1.152-2.754.288-1.104.432-2.388.432-3.852s-.144-2.754-.432-3.87c-.288-1.116-.678-2.04-1.17-2.772-.492-.732-1.068-1.284-1.728-1.656a4.223 4.223 0 0 0-2.106-.558c-1.488 0-2.76.744-3.816 2.232zm21.996 2.808v11.556l2.916.54c.024.12.042.228.054.324.012.096.018.204.018.324 0 .12-.006.246-.018.378-.012.132-.03.27-.054.414a97.657 97.657 0 0 0-4.644-.108c-.552 0-1.218.006-1.998.018-.78.012-1.674.03-2.682.054a2.149 2.149 0 0 1-.108-.684c0-.216.036-.456.108-.72l2.844-.396c.048-.672.084-1.386.108-2.142.024-.756.036-1.566.036-2.43v-7.668c0-1.584-.036-2.76-.108-3.528l-2.844-.36c-.048-.12-.072-.324-.072-.612v-.36c0-.12.024-.252.072-.396 1.632-.096 3.696-.348 6.192-.756.216.24.336.48.36.72-.12.672-.18 2.616-.18 5.832zM53.742 6.756a1.008 1.008 0 0 1-.072-.378V6c0-.648.27-1.17.81-1.566.54-.396 1.206-.594 1.998-.594.744 0 1.35.222 1.818.666.468.444.702 1.05.702 1.818 0 .624-.27 1.128-.81 1.512-.54.384-1.23.576-2.07.576a2.749 2.749 0 0 1-1.53-.432 1.907 1.907 0 0 1-.846-1.224zm24.984 13.392c0-1.848-.246-3.144-.738-3.888-.492-.744-1.314-1.116-2.466-1.116-1.776 0-3.564 1.332-5.364 3.996v12.024l2.916.54c.096.384.096.864 0 1.44a97.657 97.657 0 0 0-4.644-.108c-1.104 0-2.664.024-4.68.072a2.335 2.335 0 0 1 0-1.404l2.844-.396c.096-1.32.144-2.844.144-4.572v-9.864c0-.48-.036-.924-.108-1.332l-2.844-.36c-.096-.36-.096-.816 0-1.368 1.656-.12 3.72-.372 6.192-.756.216.24.336.48.36.72-.12.624-.18 1.692-.18 3.204 1.896-2.616 4.032-3.924 6.408-3.924 3.72 0 5.58 1.764 5.58 5.292v12.816l2.916.54c.096.384.096.864 0 1.44a97.657 97.657 0 0 0-4.644-.108c-1.104 0-2.664.024-4.68.072a2.335 2.335 0 0 1 0-1.404l2.844-.396c.096-1.32.144-2.844.144-4.572v-6.588zm35.964 6.984v-20.7L103.818 34.08h-.936L92.406 7.332v19.8c0 1.896.048 3.3.144 4.212l3.348.432c.144.432.144.864 0 1.296A217.535 217.535 0 0 0 91.506 33c-1.44 0-2.892.036-4.356.108-.096-.528-.096-.972 0-1.332l3.276-.36V10.212c0-1.896-.048-3.3-.144-4.212l-2.988-.432a1.788 1.788 0 0 1 0-1.224h7.92l9.036 23.688 9.252-23.688a63.78 63.78 0 0 0 2.52.036c.24 0 2.124-.036 5.652-.108.144.432.144.864 0 1.296L118.686 6c-.096.912-.144 2.316-.144 4.212v21.204l2.916.36c.096.36.096.804 0 1.332a104.167 104.167 0 0 0-4.932-.108c-1.296 0-2.952.024-4.968.072-.144-.6-.144-1.032 0-1.296l2.988-.432c.096-.912.144-2.316.144-4.212zm13.32 1.08c0 1.248.228 2.13.684 2.646.456.516 1.176.774 2.16.774.72 0 1.518-.222 2.394-.666.876-.444 1.686-1.086 2.43-1.926v-5.616c-2.472.144-4.368.582-5.688 1.314-1.32.732-1.98 1.89-1.98 3.474zm7.668-6.084v-1.836c0-2.04-.234-3.522-.702-4.446-.468-.924-1.242-1.386-2.322-1.386-1.104 0-1.992.354-2.664 1.062-.672.708-1.128 1.914-1.368 3.618-.768.168-1.332.252-1.692.252-.936 0-1.488-.336-1.656-1.008 0-1.632.708-2.928 2.124-3.888 1.416-.96 3.18-1.44 5.292-1.44 2.328 0 3.978.474 4.95 1.422s1.458 2.646 1.458 5.094v10.152c0 .6.036 1.116.108 1.548l2.844.36c.096.36.096.816 0 1.368a57.99 57.99 0 0 0-5.436.504 1.29 1.29 0 0 1-.36-.72l-.18-2.484c-1.992 2.28-4.212 3.42-6.66 3.42-1.512 0-2.694-.432-3.546-1.296-.852-.864-1.278-2.028-1.278-3.492 0-2.208 1.002-3.876 3.006-5.004 2.004-1.128 4.698-1.728 8.082-1.8zm14.364-8.352l-.072 3.708c.6-1.104 1.434-2.118 2.502-3.042 1.068-.924 2.082-1.386 3.042-1.386.744 0 1.404.084 1.98.252.192.312.288.72.288 1.224 0 .792-.168 1.584-.504 2.376a9.277 9.277 0 0 0-2.484-.36c-1.968 0-3.588.96-4.86 2.88l-.072 6.3v5.436l3.996.54c.096.384.096.864 0 1.44a110.25 110.25 0 0 0-5.184-.108c-1.464 0-3.204.024-5.22.072a2.335 2.335 0 0 1 0-1.404l2.844-.396c.096-1.32.144-2.844.144-4.572v-9.864c0-.48-.036-.924-.108-1.332l-2.844-.36c-.096-.36-.096-.816 0-1.368 1.656-.12 3.72-.372 6.192-.756.216.24.336.48.36.72zm15.444 8.856l7.524-7.272-2.376-.288c-.096-.384-.096-.852 0-1.404 1.32.096 2.556.144 3.708.144.936 0 2.184-.036 3.744-.108.144.432.144.888 0 1.368l-2.844.504-6.372 5.976 7.848 9.396 2.808.72c.096.384.096.864 0 1.44A95.35 95.35 0 0 0 174.99 33c-1.032 0-2.556.024-4.572.072a2.335 2.335 0 0 1 0-1.404l2.376-.324-7.308-8.712zm-.396-12.456v20.988l2.916.54c.096.384.096.864 0 1.44a96.88 96.88 0 0 0-4.608-.108c-1.104 0-2.664.024-4.68.072a2.335 2.335 0 0 1 0-1.404l2.844-.396c.096-1.32.144-2.844.144-4.572V6.108l-2.952-.36c-.096-.36-.096-.816 0-1.368 1.608-.12 3.66-.372 6.156-.756.216.24.336.48.36.72-.12.624-.18 2.568-.18 5.832zm29.592 12.672h-11.304c-.216 6.12 1.62 9.18 5.508 9.18 1.656 0 3.348-.732 5.076-2.196.36.216.636.588.828 1.116-1.656 1.848-3.756 2.772-6.3 2.772-5.856 0-8.784-3.444-8.784-10.332 0-3.264.864-5.802 2.592-7.614 1.728-1.812 3.744-2.718 6.048-2.718 2.52 0 4.332.876 5.436 2.628 1.104 1.752 1.656 4.032 1.656 6.84-.24.192-.492.3-.756.324zm-6.408-8.352c-1.248 0-2.31.648-3.186 1.944-.876 1.296-1.41 2.952-1.602 4.968h4.464c1.776 0 3.048-.108 3.816-.324 0-1.968-.3-3.558-.9-4.77-.6-1.212-1.464-1.818-2.592-1.818zm15.552-5.04v5.148h5.076c.048.288.072.504.072.648 0 .216-.024.468-.072.756l-5.076.756v9.9c0 1.776.162 3.03.486 3.762.324.732.834 1.098 1.53 1.098.624 0 1.596-.252 2.916-.756.24.216.408.624.504 1.224-.72.432-1.266.75-1.638.954-.372.204-.84.384-1.404.54a6.656 6.656 0 0 1-1.782.234c-1.2 0-2.178-.462-2.934-1.386-.756-.924-1.134-2.334-1.134-4.23V16.332l-2.52-.324a3.203 3.203 0 0 1-.072-.612c0-.192.024-.456.072-.792.672-.12 1.254-.33 1.746-.63s.906-.72 1.242-1.26c.336-.54.594-1.02.774-1.44.18-.42.402-1.026.666-1.818.216-.072.48-.108.792-.108.288 0 .54.036.756.108zM71.07 45.912c.984 0 2.55-.048 4.698-.144 2.148-.096 4.098-.144 5.85-.144 3.72 0 6.372.726 7.956 2.178 1.584 1.452 2.376 3.474 2.376 6.066 0 2.304-1.026 4.236-3.078 5.796-2.052 1.56-4.494 2.34-7.326 2.34-1.464 0-2.7-.072-3.708-.216v11.304l3.276.36c.096.36.096.804 0 1.332a108.477 108.477 0 0 0-5.112-.108c-1.416 0-3.132.024-5.148.072a1.998 1.998 0 0 1 0-1.296l2.988-.432c.096-.912.144-2.316.144-4.212V47.604l-2.916-.36c-.096-.36-.096-.804 0-1.332zm6.676 6.464V60.8c.744.096 1.824.144 3.24.144 1.248 0 2.322-.21 3.222-.63.9-.42 1.578-.984 2.034-1.692.456-.708.78-1.422.972-2.142.192-.72.288-1.488.288-2.304 0-2.088-.528-3.702-1.584-4.842-1.056-1.14-2.82-1.71-5.292-1.71-.888 0-1.776.084-2.664.252a43.183 43.183 0 0 0-.216 4.5zm22.516-.2v20.988l2.916.54c.096.384.096.864 0 1.44a97.657 97.657 0 0 0-4.644-.108c-1.104 0-2.664.024-4.68.072a2.335 2.335 0 0 1 0-1.404l2.844-.396c.096-1.32.144-2.844.144-4.572V48.108l-2.952-.36c-.096-.36-.096-.816 0-1.368 1.656-.12 3.72-.372 6.192-.756.216.24.336.48.36.72-.12.624-.18 2.568-.18 5.832zm21.628 3.168v14.112c0 1.608.036 2.736.108 3.384l2.844.36c.072.384.072.84 0 1.368a56.56 56.56 0 0 0-5.472.504c-.168-.168-.288-.396-.36-.684l-.18-3.204c-1.008 1.296-2.046 2.304-3.114 3.024-1.068.72-2.322 1.08-3.762 1.08-1.464 0-2.694-.372-3.69-1.116-.996-.744-1.494-2.016-1.494-3.816v-7.992c0-2.736-.036-4.488-.108-5.256l-2.844-.36c-.096-.36-.096-.816 0-1.368 1.656-.12 3.72-.372 6.192-.756.216.24.336.48.36.72-.12.624-.18 5.028-.18 13.212 0 1.68.198 2.874.594 3.582.396.708 1.134 1.062 2.214 1.062 2.016 0 3.84-1.2 5.472-3.6v-7.272c0-2.712-.036-4.452-.108-5.22l-2.844-.36c-.096-.36-.096-.816 0-1.368 1.44-.096 3.444-.348 6.012-.756.216.24.336.48.36.72zm12.228 18.36c1.296 0 2.256-.3 2.88-.9.624-.6.936-1.296.936-2.088 0-.456-.072-.876-.216-1.26a3.533 3.533 0 0 0-.702-1.116c-.324-.36-.75-.714-1.278-1.062a21.785 21.785 0 0 0-1.98-1.134 29.93 29.93 0 0 1-2.538-1.44c-.708-.456-1.29-.936-1.746-1.44a5.343 5.343 0 0 1-1.026-1.62c-.228-.576-.342-1.224-.342-1.944 0-.864.156-1.614.468-2.25a4.317 4.317 0 0 1 1.314-1.584c.564-.42 1.23-.732 1.998-.936.768-.204 1.62-.306 2.556-.306 1.872 0 3.696.456 5.472 1.368V60.6h-1.692l-.792-3.888a7.677 7.677 0 0 0-3.348-.756c-1.968 0-2.952.804-2.952 2.412 0 .864.324 1.656.972 2.376.648.72 1.692 1.44 3.132 2.16.984.504 1.848.984 2.592 1.44.744.456 1.362.936 1.854 1.44.492.504.864 1.05 1.116 1.638.252.588.378 1.254.378 1.998 0 .84-.18 1.62-.54 2.34a5.484 5.484 0 0 1-1.512 1.854c-.648.516-1.428.924-2.34 1.224-.912.3-1.92.45-3.024.45-2.136 0-4.14-.456-6.012-1.368v-4.608h1.692l.792 3.564a9.35 9.35 0 0 0 3.888.828z" fill="#0C426E"/><g transform="translate(3 1)"><path d="M18.797 2.303c-5.79.232-10.217 1.788-13.284 4.67C2.447 9.855.775 14.144.497 19.842" stroke="#0C426E" stroke-width="6"/><g fill="#0C426E"><path d="M117 77h27v3h-27z"/><path d="M141 80V53h3v27z"/><path d="M142.363 47l5.364 6.27H137z"/></g><path d="M18.674 8.09c-4.305.182-7.418 1.258-9.338 3.227-1.92 1.97-2.894 4.752-2.92 8.346" stroke="#0C426E" stroke-width="4"/><circle fill="#0C426E" cx="22.5" cy="1.5" r="1.5"/><circle fill="#0C426E" cx="21.5" cy="4.5" r="1.5"/><circle fill="#0C426E" cx="20.4" cy="7.4" r="1.4"/><path d="M24.302 3.8c1.17.472 2.27 1.086 3.297 1.84a14.345 14.345 0 0 1 2.689 2.551" stroke="#0C426E" stroke-width="5"/><path d="M22 9c1.184.55 1.992.97 2.423 1.262.431.292 1.099.87 2.004 1.735M6.493 21.04c.122 2.868 1.71 5.427 4.763 7.68 4.23 2.731 9.014 2.731 14.355 0" stroke="#0C426E" stroke-width="4"/><path d="M.487 20.97C.68 26.9 3.745 31.474 9.686 34.69c4 1.969 7.48 2.195 10.816 1.854 1.92-.196 4.494-1.01 7.72-2.443" stroke="#0C426E" stroke-width="6"/></g></g></svg>