<svg width="425" height="61" viewBox="0 0 425 61" xmlns="http://www.w3.org/2000/svg"><title>CoinTelegraph</title><g fill="none" fill-rule="evenodd"><g stroke="#000" stroke-width="2" transform="translate(1 1)"><ellipse cx="19.432" cy="12.734" rx="18.811" ry="12.734"/><path d="M.622 20.793c0 7.032 8.422 12.733 18.81 12.733 10.39 0 18.81-5.7 18.81-12.733"/><path d="M.622 28.53c0 7.032 8.422 12.733 18.81 12.733 10.39 0 18.81-5.7 18.81-12.733"/><path d="M.904 13.54v22.082" stroke-linecap="square"/><path d="M.622 36.266C.622 43.3 9.044 49 19.432 49c10.39 0 18.81-5.701 18.81-12.734"/></g><path stroke="#FDCE03" stroke-width="2" fill="#333" fill-rule="nonzero" d="M24.458 6H60l-2.614 10.918H45.392l-4.601 12.668 14.286-7.854L34.205 55l3.41-13.916-9.809 4.681 6.4-28.256H22z"/><path d="M88.755 22.61c-1.313-1.725-3.225-2.834-4.966-2.834-3.083 0-5.423 2.619-5.423 6.07 0 3.482 2.34 6.132 5.423 6.132 1.655 0 3.568-.986 4.966-2.527l3.054 3.543C89.67 35.43 86.472 37 83.503 37 77.481 37 73 32.255 73 25.908 73 19.683 77.595 15 83.703 15c2.969 0 6.08 1.417 8.078 3.697l-3.026 3.914zm24.55-7.61c6.154 0 10.748 4.683 10.748 10.938 0 6.317-4.594 11.062-10.748 11.062-6.154 0-10.748-4.745-10.748-11.062 0-6.285 4.594-10.938 10.748-10.938zm.057 5.5a5.418 5.418 0 0 0-5.43 5.473c0 3.119 2.503 5.527 5.43 5.527 2.954 0 5.317-2.408 5.317-5.527 0-3.12-2.363-5.473-5.317-5.473zm21.44-5.5h5.374v22h-5.374V15zm16.122 0h4.666l9.216 13.244V15h4.927v22h-4.637l-9.216-13.181V37h-4.956V15zm29.557 0h16.122v4.739h-5.633V37h-4.91V19.739h-5.58V15zm29.557 0h15.836v4.582h-10.595v4.111h9.564v4.55l-9.564.032v4.143h10.881V37h-16.122V15zm26.87 0h5.123v17.104h8.313V37h-13.436V15zm24.184 0h15.835v4.582h-10.595v4.111h9.564v4.55l-9.564.032v4.143h10.882V37h-16.122V15zm41.053 16.176v-5.453h4.403v8.504c-2.09 1.602-5.406 2.773-8.137 2.773-5.963 0-10.45-4.745-10.45-11.03 0-6.287 4.599-10.97 10.785-10.97 2.926 0 6.019 1.232 8.025 3.204l-2.898 3.944c-1.393-1.448-3.372-2.372-5.155-2.372-3.149 0-5.517 2.68-5.517 6.193 0 3.544 2.396 6.224 5.573 6.224.975 0 2.201-.37 3.371-1.017zM336.328 37h-6.2l-3.055-6.088H323V37h-5.48V15h9.434c5.57 0 8.745 2.825 8.745 7.72 0 3.327-1.318 5.775-3.744 7.093L336.328 37zm-13.435-16.5V26h4.289c2.386 0 3.772-.972 3.772-2.788 0-1.765-1.386-2.712-3.772-2.712h-4.289zM363.22 37l-1.318-3.892h-8.318L352.238 37h-5.162l8.264-22h5.161l8.072 22h-5.354zm-8.082-8.25h5.374l-2.659-8.25-2.715 8.25zm32.6-13.75c4.891 0 7.706 2.825 7.706 7.72 0 5.179-2.815 8.192-7.706 8.192h-3.416V37h-5V15h8.416zm-.367 11c1.707 0 2.699-.972 2.699-2.788 0-1.765-.992-2.712-2.699-2.712h-2.675V26h2.675zm18.82-11h5.305v8.976h8.201V15H425v22h-5.304v-8.442h-8.201V37h-5.304V15z" fill="#000" fill-rule="nonzero"/></g></svg>