<svg width="62" height="61" viewBox="0 0 62 61" xmlns="http://www.w3.org/2000/svg"><title>CoinTelegraph</title><g stroke-width="2" fill="none" fill-rule="evenodd"><g stroke="#DDD" transform="translate(1 1)"><ellipse cx="19.432" cy="12.734" rx="18.811" ry="12.734"/><path d="M.622 20.793c0 7.032 8.422 12.733 18.81 12.733 10.39 0 18.81-5.7 18.81-12.733"/><path d="M.622 28.53c0 7.032 8.422 12.733 18.81 12.733 10.39 0 18.81-5.7 18.81-12.733"/><path d="M.904 13.54v22.082" stroke-linecap="square"/><path d="M.622 36.266C.622 43.3 9.044 49 19.432 49c10.39 0 18.81-5.701 18.81-12.734"/></g><path stroke="#FDCE03" fill="#333" fill-rule="nonzero" d="M24.458 6H60l-2.614 10.918H45.392l-4.601 12.668 14.286-7.854L34.205 55l3.41-13.916-9.809 4.681 6.4-28.256H22z"/></g></svg>