<svg width="87" height="53" viewBox="0 0 87 53" xmlns="http://www.w3.org/2000/svg"><title>investing</title><g fill="none" fill-rule="evenodd"><path d="M12.692 4.631V53H.065V8.313m51 21.641V53H39.578V32.99c0-4.209-2.061-6.858-5.606-6.858-3.797.07-5.757 2.925-6.2 7.134V53H16.418V19.505l10.913-3.351v6.072c2.405-4.278 6.499-6.072 11.499-6.072 7.468 0 12.235 5.037 12.235 13.8zm-1-12.664H62.11l6.414 23.892 6.443-23.952h11.374L74.967 53H61.758L50.065 17.29z" fill="#FFF"/><path fill="#FFA603" d="M63 3.7v11.145l12.853-3.764V0z"/></g></svg>