<?xml version="1.0" encoding="UTF-8"?>
<svg width="425px" height="61px" viewBox="0 0 425 61" version="1.1" xmlns="http://www.w3.org/2000/svg" xmlns:xlink="http://www.w3.org/1999/xlink">
    <!-- Generator: Sketch 48.2 (47327) - http://www.bohemiancoding.com/sketch -->
    <title>CoinTelegraph</title>
    <desc>Created with Sketch.</desc>
    <defs></defs>
    <g id="CrowdSale" stroke="none" stroke-width="1" fill="none" fill-rule="evenodd" transform="translate(-1282.000000, -1400.000000)">
        <g id="CoinTelegraph" transform="translate(1283.000000, 1401.000000)">
            <g id="Group" stroke="#000000" stroke-width="2">
                <ellipse id="Oval" cx="19.4323467" cy="12.7335526" rx="18.8105116" ry="12.7335526"></ellipse>
                <path d="M0.621835092,20.7927631 C0.621835092,27.8253101 9.04358797,33.5263159 19.4323467,33.5263159 C29.8211054,33.5263159 38.2428582,27.8253101 38.2428582,20.7927631" id="Oval-Copy"></path>
                <path d="M0.621835092,28.5296054 C0.621835092,35.5621521 9.04358797,41.2631578 19.4323467,41.2631578 C29.8211054,41.2631578 38.2428582,35.5621521 38.2428582,28.5296054" id="Oval-Copy-2"></path>
                <path d="M0.904347825,13.5394737 L0.904347825,35.6217105" id="Line" stroke-linecap="square"></path>
                <path d="M0.621835092,36.2664473 C0.621835092,43.2989943 9.04358797,49 19.4323467,49 C29.8211054,49 38.2428582,43.2989943 38.2428582,36.2664473" id="Oval-Copy-3"></path>
            </g>
            <polygon id="Path-2" stroke="#FDCE03" stroke-width="2" fill="#333333" fill-rule="nonzero" points="23.4575976 5 59 5 56.3859708 15.9177579 44.3922463 15.9177579 39.7908681 28.5858917 54.0771741 20.732343 33.2054798 54 36.6150205 40.084303 26.8060922 44.7652956 33.2054798 16.5094564 21 16.5094564"></polygon>
            <path d="M87.7551691,21.6106442 C86.4422384,19.8851541 84.5299261,18.7759104 82.7888658,18.7759104 C79.7063328,18.7759104 77.365891,21.394958 77.365891,24.8459384 C77.365891,28.327731 79.7063328,30.9775911 82.7888658,30.9775911 C84.4443003,30.9775911 86.3566126,29.9915968 87.7551691,28.4509805 L90.8091603,31.9943978 C88.6685123,34.4285713 85.4718114,36 82.5034462,36 C76.4810898,36 72,31.254902 72,24.907563 C72,18.6834734 76.5952576,14 82.7032398,14 C85.671605,14 88.7826802,15.4173669 90.7806182,17.697479 L87.7551691,21.6106442 Z M112.305344,14 C118.459264,14 123.053435,18.6834734 123.053435,24.9383754 C123.053435,31.254902 118.459264,36 112.305344,36 C106.151423,36 101.557252,31.254902 101.557252,24.9383754 C101.557252,18.6526611 106.151423,14 112.305344,14 Z M112.361616,19.5 C109.407298,19.5 106.931298,21.8532338 106.931298,24.9726368 C106.931298,28.0920398 109.435434,30.5 112.361616,30.5 C115.315934,30.5 117.679389,28.0920398 117.679389,24.9726368 C117.679389,21.8532338 115.315934,19.5 112.361616,19.5 Z M133.801527,14 L139.175573,14 L139.175573,36 L133.801527,36 L133.801527,14 Z M149.923664,14 L154.589727,14 L163.805926,27.2439372 L163.805926,14 L168.732824,14 L168.732824,36 L164.095743,36 L154.879545,22.8188302 L154.879545,36 L149.923664,36 L149.923664,14 Z M179.480916,14 L195.603053,14 L195.603053,18.7389444 L189.969694,18.7389444 L189.969694,36 L185.060624,36 L185.060624,18.7389444 L179.480916,18.7389444 L179.480916,14 Z M209.038168,14 L224.873944,14 L224.873944,18.5820257 L214.278578,18.5820257 L214.278578,22.6932953 L223.843044,22.6932953 L223.843044,27.2439372 L214.278578,27.275321 L214.278578,31.4179742 L225.160305,31.4179742 L225.160305,36 L209.038168,36 L209.038168,14 Z M235.908397,14 L241.030534,14 L241.030534,31.104137 L249.343511,31.104137 L249.343511,36 L235.908397,36 L235.908397,14 Z M260.091603,14 L275.927379,14 L275.927379,18.5820257 L265.332014,18.5820257 L265.332014,22.6932953 L274.896479,22.6932953 L274.896479,27.2439372 L265.332014,27.275321 L265.332014,31.4179742 L276.21374,31.4179742 L276.21374,36 L260.091603,36 L260.091603,14 Z M301.145333,30.1764705 L301.145333,24.7226891 L305.548069,24.7226891 L305.548069,33.2268907 C303.458162,34.8291317 300.142176,36 297.411366,36 C291.448166,36 286.961832,31.254902 286.961832,24.9691877 C286.961832,18.6834734 291.559627,14 297.74575,14 C300.671619,14 303.764681,15.232493 305.770992,17.2044818 L302.872987,21.1484594 C301.479717,19.7002801 299.501273,18.7759104 297.717885,18.7759104 C294.569092,18.7759104 292.200533,21.4565826 292.200533,24.9691877 C292.200533,28.512605 294.596957,31.1932772 297.773617,31.1932772 C298.748907,31.1932772 299.974985,30.8235295 301.145333,30.1764705 Z M335.328244,36 L329.128409,36 L326.073417,29.911555 L322.000097,29.911555 L322.000097,36 L316.519084,36 L316.519084,14 L325.953614,14 C331.524481,14 334.699277,16.8245364 334.699277,21.7203994 C334.699277,25.0470756 333.381437,27.4950071 330.955413,28.8131242 L335.328244,36 Z M321.89313,19.5 L321.89313,25 L326.181618,25 C328.567695,25 329.954198,24.027907 329.954198,22.2116279 C329.954198,20.4465116 328.567695,19.5 326.181618,19.5 L321.89313,19.5 Z M362.219064,36 L360.901289,32.1084164 L352.582844,32.1084164 L351.237615,36 L346.076336,36 L354.339874,14 L359.501156,14 L367.572519,36 L362.219064,36 Z M354.137405,27.75 L359.51145,27.75 L356.852128,19.5 L354.137405,27.75 Z M386.736912,14 C391.628204,14 394.442748,16.8245364 394.442748,21.7203994 C394.442748,26.8987161 391.628204,29.911555 386.736912,29.911555 L383.321206,29.911555 L383.321206,36 L378.320611,36 L378.320611,14 L386.736912,14 Z M386.370147,25 C388.076925,25 389.068702,24.027907 389.068702,22.2116279 C389.068702,20.4465116 388.076925,19.5 386.370147,19.5 L383.694656,19.5 L383.694656,25 L386.370147,25 Z M405.19084,14 L410.494502,14 L410.494502,22.9757489 L418.696338,22.9757489 L418.696338,14 L424,14 L424,36 L418.696338,36 L418.696338,27.5577746 L410.494502,27.5577746 L410.494502,36 L405.19084,36 L405.19084,14 Z" id="C-O-I-N-T-E-L-E-G-R" fill="#000000" fill-rule="nonzero"></path>
        </g>
    </g>
</svg>