<?xml version="1.0" encoding="UTF-8"?>
<svg width="210px" height="81px" viewBox="0 0 210 81" version="1.1" xmlns="http://www.w3.org/2000/svg" xmlns:xlink="http://www.w3.org/1999/xlink">
    <!-- Generator: Sketch 48.2 (47327) - http://www.bohemiancoding.com/sketch -->
    <title>Group 3</title>
    <desc>Created with Sketch.</desc>
    <defs></defs>
    <g id="Page-1" stroke="none" stroke-width="1" fill="none" fill-rule="evenodd">
        <g id="Group-3" transform="translate(3.000000, 1.000000)">
            <path d="M28.746,22.424 C28.746,20.9839928 28.9559979,19.6340063 29.376,18.374 C29.7960021,17.1139937 30.401996,16.0160047 31.194,15.08 C31.986004,14.1439953 32.9399944,13.4060027 34.056,12.866 C35.1720056,12.3259973 36.425993,12.056 37.818,12.056 C39.1860068,12.056 40.4339944,12.3259973 41.562,12.866 C42.6900056,13.4060027 43.655996,14.1439953 44.46,15.08 C45.264004,16.0160047 45.8819978,17.1139937 46.314,18.374 C46.7460022,19.6340063 46.962,20.9839928 46.962,22.424 C46.962,23.9120074 46.7400022,25.2799938 46.296,26.528 C45.8519978,27.7760062 45.228004,28.8619954 44.424,29.786 C43.619996,30.7100046 42.6540056,31.4299974 41.526,31.946 C40.3979944,32.4620026 39.1620067,32.72 37.818,32.72 C36.4019929,32.72 35.1360056,32.4680025 34.02,31.964 C32.9039944,31.4599975 31.9560039,30.7520046 31.176,29.84 C30.3959961,28.9279954 29.7960021,27.8420063 29.376,26.582 C28.9559979,25.3219937 28.746,23.9360076 28.746,22.424 Z M34.002,15.8 C32.9699948,17.2640073 32.454,19.4719852 32.454,22.424 C32.454,23.8880073 32.5919986,25.1719945 32.868,26.276 C33.1440014,27.3800055 33.5219976,28.2979963 34.002,29.03 C34.4820024,29.7620037 35.0459968,30.3079982 35.694,30.668 C36.3420032,31.0280018 37.0499962,31.208 37.818,31.208 C38.5620037,31.208 39.2699966,31.0280018 39.942,30.668 C40.6140034,30.3079982 41.1899976,29.7620037 41.67,29.03 C42.1500024,28.2979963 42.5339986,27.3800055 42.822,26.276 C43.1100014,25.1719945 43.254,23.8880073 43.254,22.424 C43.254,20.9599927 43.1100014,19.6700056 42.822,18.554 C42.5339986,17.4379944 42.1440025,16.5140037 41.652,15.782 C41.1599975,15.0499963 40.5840033,14.4980019 39.924,14.126 C39.2639967,13.7539981 38.5620037,13.568 37.818,13.568 C36.3299926,13.568 35.0580053,14.3119926 34.002,15.8 Z M55.998,18.608 L55.998,30.164 L58.914,30.704 C58.9380001,30.8240006 58.9559999,30.9319995 58.968,31.028 C58.9800001,31.1240005 58.986,31.2319994 58.986,31.352 C58.986,31.4720006 58.9800001,31.5979993 58.968,31.73 C58.9559999,31.8620007 58.9380001,31.9999993 58.914,32.144 C57.4019924,32.0719996 55.8540079,32.036 54.27,32.036 C53.7179972,32.036 53.0520039,32.0419999 52.272,32.054 C51.4919961,32.0660001 50.598005,32.0839999 49.59,32.108 C49.5179996,31.8919989 49.482,31.6640012 49.482,31.424 C49.482,31.2079989 49.5179996,30.9680013 49.59,30.704 L52.434,30.308 C52.4820002,29.6359966 52.5179999,28.9220038 52.542,28.166 C52.5660001,27.4099962 52.578,26.6000043 52.578,25.736 L52.578,18.068 C52.578,16.4839921 52.5420004,15.3080038 52.47,14.54 L49.626,14.18 C49.5779998,14.0599994 49.554,13.8560014 49.554,13.568 L49.554,13.208 C49.554,13.0879994 49.5779998,12.9560007 49.626,12.812 C51.2580082,12.7159995 53.3219875,12.464002 55.818,12.056 C56.0340011,12.2960012 56.1539999,12.5359988 56.178,12.776 C56.0579994,13.4480034 55.998,15.3919839 55.998,18.608 Z M50.742,5.756 C50.6939998,5.6359994 50.67,5.51000066 50.67,5.378 L50.67,5 C50.67,4.35199676 50.9399973,3.83000198 51.48,3.434 C52.0200027,3.03799802 52.685996,2.84 53.478,2.84 C54.2220037,2.84 54.8279977,3.06199778 55.296,3.506 C55.7640023,3.95000222 55.998,4.55599616 55.998,5.324 C55.998,5.94800312 55.7280027,6.45199808 55.188,6.836 C54.6479973,7.22000192 53.9580042,7.412 53.118,7.412 C52.5419971,7.412 52.0320022,7.26800144 51.588,6.98 C51.1439978,6.69199856 50.8620006,6.28400264 50.742,5.756 Z M75.726,19.148 C75.726,17.2999908 75.4800025,16.0040037 74.988,15.26 C74.4959975,14.5159963 73.6740058,14.144 72.522,14.144 C70.7459911,14.144 68.958009,15.4759867 67.158,18.14 L67.158,30.164 L70.074,30.704 C70.1700005,31.0880019 70.1700005,31.5679971 70.074,32.144 C68.5619924,32.0719996 67.0140079,32.036 65.43,32.036 C64.3259945,32.036 62.7660101,32.0599998 60.75,32.108 C60.6059993,31.6519977 60.6059993,31.1840024 60.75,30.704 L63.594,30.308 C63.6900005,28.9879934 63.738,27.4640086 63.738,25.736 L63.738,15.872 C63.738,15.3919976 63.7020004,14.948002 63.63,14.54 L60.786,14.18 C60.6899995,13.8199982 60.6899995,13.3640028 60.786,12.812 C62.4420083,12.6919994 64.5059876,12.4400019 66.978,12.056 C67.1940011,12.2960012 67.3139999,12.5359988 67.338,12.776 C67.2179994,13.4000031 67.158,14.4679924 67.158,15.98 C69.0540095,13.3639869 71.1899881,12.056 73.566,12.056 C77.2860186,12.056 79.146,13.8199824 79.146,17.348 L79.146,30.164 L82.062,30.704 C82.1580005,31.0880019 82.1580005,31.5679971 82.062,32.144 C80.5499924,32.0719996 79.0020079,32.036 77.418,32.036 C76.3139945,32.036 74.7540101,32.0599998 72.738,32.108 C72.5939993,31.6519977 72.5939993,31.1840024 72.738,30.704 L75.582,30.308 C75.6780005,28.9879934 75.726,27.4640086 75.726,25.736 L75.726,19.148 Z M111.69,26.132 L111.69,5.432 L100.818,33.08 L99.882,33.08 L89.406,6.332 L89.406,26.132 C89.406,28.0280095 89.4539995,29.4319954 89.55,30.344 L92.898,30.776 C93.0420007,31.2080022 93.0420007,31.6399978 92.898,32.072 C90.8339897,32.0239998 89.3700043,32 88.506,32 C87.0659928,32 85.6140073,32.0359996 84.15,32.108 C84.0539995,31.5799974 84.0539995,31.1360018 84.15,30.776 L87.426,30.416 L87.426,9.212 C87.426,7.31599052 87.3780005,5.91200456 87.282,5 L84.294,4.568 C84.1499993,4.15999796 84.1499993,3.75200204 84.294,3.344 L92.214,3.344 L101.25,27.032 L110.502,3.344 C111.054003,3.36800012 111.893994,3.38 113.022,3.38 C113.262001,3.38 115.145982,3.34400036 118.674,3.272 C118.818001,3.70400216 118.818001,4.13599784 118.674,4.568 L115.686,5 C115.59,5.91200456 115.542,7.31599052 115.542,9.212 L115.542,30.416 L118.458,30.776 C118.554,31.1360018 118.554,31.5799974 118.458,32.108 C116.945992,32.0359996 115.302009,32 113.526,32 C112.229994,32 110.57401,32.0239998 108.558,32.072 C108.413999,31.471997 108.413999,31.0400013 108.558,30.776 L111.546,30.344 C111.642,29.4319954 111.69,28.0280095 111.69,26.132 Z M125.01,27.212 C125.01,28.4600062 125.237998,29.3419974 125.694,29.858 C126.150002,30.3740026 126.869995,30.632 127.854,30.632 C128.574004,30.632 129.371996,30.4100022 130.248,29.966 C131.124004,29.5219978 131.933996,28.8800042 132.678,28.04 L132.678,22.424 C130.205988,22.5680007 128.310007,23.0059963 126.99,23.738 C125.669993,24.4700037 125.01,25.6279921 125.01,27.212 Z M132.678,21.128 L132.678,19.292 C132.678,17.2519898 132.444002,15.7700046 131.976,14.846 C131.507998,13.9219954 130.734005,13.46 129.654,13.46 C128.549994,13.46 127.662003,13.8139965 126.99,14.522 C126.317997,15.2300035 125.862001,16.4359915 125.622,18.14 C124.853996,18.3080008 124.290002,18.392 123.93,18.392 C122.993995,18.392 122.442001,18.0560034 122.274,17.384 C122.274,15.7519918 122.981993,14.4560048 124.398,13.496 C125.814007,12.5359952 127.577989,12.056 129.69,12.056 C132.018012,12.056 133.667995,12.5299953 134.64,13.478 C135.612005,14.4260047 136.098,16.1239878 136.098,18.572 L136.098,28.724 C136.098,29.324003 136.134,29.8399978 136.206,30.272 L139.05,30.632 C139.146,30.9920018 139.146,31.4479972 139.05,32 C137.345991,32.0720004 135.53401,32.2399987 133.614,32.504 C133.421999,32.311999 133.302,32.0720014 133.254,31.784 L133.074,29.3 C131.08199,31.5800114 128.862012,32.72 126.414,32.72 C124.901992,32.72 123.720004,32.2880043 122.868,31.424 C122.015996,30.5599957 121.59,29.3960073 121.59,27.932 C121.59,25.723989 122.59199,24.0560056 124.596,22.928 C126.60001,21.7999944 129.293983,21.2000004 132.678,21.128 Z M147.042,12.776 L146.97,16.484 C147.570003,15.3799945 148.403995,14.3660046 149.472,13.442 C150.540005,12.5179954 151.553995,12.056 152.514,12.056 C153.258004,12.056 153.917997,12.1399992 154.494,12.308 C154.686001,12.6200016 154.782,13.0279975 154.782,13.532 C154.782,14.324004 154.614002,15.115996 154.278,15.908 C153.413996,15.6679988 152.586004,15.548 151.794,15.548 C149.82599,15.548 148.206006,16.5079904 146.934,18.428 L146.862,24.728 L146.862,30.164 L150.858,30.704 C150.954,31.0880019 150.954,31.5679971 150.858,32.144 C149.345992,32.0719996 147.61801,32.036 145.674,32.036 C144.209993,32.036 142.47001,32.0599998 140.454,32.108 C140.309999,31.6519977 140.309999,31.1840024 140.454,30.704 L143.298,30.308 C143.394,28.9879934 143.442,27.4640086 143.442,25.736 L143.442,15.872 C143.442,15.3919976 143.406,14.948002 143.334,14.54 L140.49,14.18 C140.394,13.8199982 140.394,13.3640028 140.49,12.812 C142.146008,12.6919994 144.209988,12.4400019 146.682,12.056 C146.898001,12.2960012 147.018,12.5359988 147.042,12.776 Z M162.486,21.632 L170.01,14.36 L167.634,14.072 C167.538,13.6879981 167.538,13.2200028 167.634,12.668 C168.954007,12.7640005 170.189994,12.812 171.342,12.812 C172.278005,12.812 173.525992,12.7760004 175.086,12.704 C175.230001,13.1360022 175.230001,13.5919976 175.086,14.072 L172.242,14.576 L165.87,20.552 L173.718,29.948 L176.526,30.668 C176.622,31.0520019 176.622,31.5319971 176.526,32.108 C175.013992,32.0359996 173.502008,32 171.99,32 C170.957995,32 169.43401,32.0239998 167.418,32.072 C167.273999,31.5919976 167.273999,31.1240023 167.418,30.668 L169.794,30.344 L162.486,21.632 Z M162.09,9.176 L162.09,30.164 L165.006,30.704 C165.102,31.0880019 165.102,31.5679971 165.006,32.144 C163.493992,32.0719996 161.958008,32.036 160.398,32.036 C159.293994,32.036 157.73401,32.0599998 155.718,32.108 C155.573999,31.6519977 155.573999,31.1840024 155.718,30.704 L158.562,30.308 C158.658,28.9879934 158.706,27.4640086 158.706,25.736 L158.706,5.108 L155.754,4.748 C155.658,4.3879982 155.658,3.93200276 155.754,3.38 C157.362008,3.2599994 159.413988,3.00800192 161.91,2.624 C162.126001,2.8640012 162.246,3.1039988 162.27,3.344 C162.149999,3.96800312 162.09,5.91198368 162.09,9.176 Z M191.682,21.848 L180.378,21.848 C180.161999,27.9680306 181.997981,31.028 185.886,31.028 C187.542008,31.028 189.233991,30.2960073 190.962,28.832 C191.322002,29.0480011 191.597999,29.4199974 191.79,29.948 C190.133992,31.7960092 188.034013,32.72 185.49,32.72 C179.633971,32.72 176.706,29.2760344 176.706,22.388 C176.706,19.1239837 177.569991,16.5860091 179.298,14.774 C181.026009,12.9619909 183.041988,12.056 185.346,12.056 C187.866013,12.056 189.677994,12.9319912 190.782,14.684 C191.886006,16.4360088 192.438,18.715986 192.438,21.524 C192.197999,21.716001 191.946001,21.8239999 191.682,21.848 Z M185.274,13.496 C184.025994,13.496 182.964004,14.1439935 182.088,15.44 C181.211996,16.7360065 180.678001,18.3919899 180.486,20.408 L184.95,20.408 C186.726009,20.408 187.997996,20.3000011 188.766,20.084 C188.766,18.1159902 188.466003,16.5260061 187.866,15.314 C187.265997,14.1019939 186.402006,13.496 185.274,13.496 Z M200.826,8.456 L200.826,13.604 L205.902,13.604 C205.95,13.8920014 205.974,14.1079993 205.974,14.252 C205.974,14.4680011 205.95,14.7199986 205.902,15.008 L200.826,15.764 L200.826,25.664 C200.826,27.4400089 200.987998,28.6939963 201.312,29.426 C201.636002,30.1580037 202.145997,30.524 202.842,30.524 C203.466003,30.524 204.437993,30.2720025 205.758,29.768 C205.998001,29.9840011 206.166,30.391997 206.262,30.992 C205.541996,31.4240022 204.996002,31.741999 204.624,31.946 C204.251998,32.150001 203.784003,32.3299992 203.22,32.486 C202.655997,32.6420008 202.062003,32.72 201.438,32.72 C200.237994,32.72 199.260004,32.2580046 198.504,31.334 C197.747996,30.4099954 197.37,29.0000095 197.37,27.104 L197.37,15.332 L194.85,15.008 C194.802,14.7679988 194.778,14.5640008 194.778,14.396 C194.778,14.203999 194.802,13.9400017 194.85,13.604 C195.522003,13.4839994 196.103998,13.2740015 196.596,12.974 C197.088002,12.6739985 197.501998,12.2540027 197.838,11.714 C198.174002,11.1739973 198.431999,10.6940021 198.612,10.274 C198.792001,9.8539979 199.013999,9.24800396 199.278,8.456 C199.494001,8.38399964 199.757998,8.348 200.07,8.348 C200.358001,8.348 200.609999,8.38399964 200.826,8.456 Z M68.0700005,44.912 C69.0540055,44.912 70.6199898,44.8640005 72.7680005,44.768 C74.9160113,44.6719995 76.8659918,44.624 78.6180005,44.624 C82.3380191,44.624 84.9899926,45.3499927 86.5740005,46.802 C88.1580085,48.2540073 88.9500005,50.275987 88.9500005,52.868 C88.9500005,55.1720115 87.9240108,57.1039922 85.8720005,58.664 C83.8199903,60.2240078 81.3780147,61.004 78.5460005,61.004 C77.0819932,61.004 75.8460056,60.9320007 74.8380005,60.788 L74.8380005,72.092 L78.1140005,72.452 C78.210001,72.8120018 78.210001,73.2559974 78.1140005,73.784 C76.601993,73.7119996 74.89801,73.676 73.0020005,73.676 C71.5859935,73.676 69.8700106,73.6999998 67.8540005,73.748 C67.7099998,73.3159978 67.7099998,72.8840022 67.8540005,72.452 L70.8420005,72.02 C70.938001,71.1079954 70.9860005,69.7040095 70.9860005,67.808 L70.9860005,46.604 L68.0700005,46.244 C67.9740001,45.8839982 67.9740001,45.4400026 68.0700005,44.912 Z M74.746,51.376 L74.746,59.8 C75.4900037,59.8960005 76.5699929,59.944 77.986,59.944 C79.2340062,59.944 80.3079955,59.7340021 81.208,59.314 C82.1080045,58.8939979 82.7859977,58.3300035 83.242,57.622 C83.6980023,56.9139965 84.021999,56.2000036 84.214,55.48 C84.406001,54.7599964 84.502,53.9920041 84.502,53.176 C84.502,51.0879896 83.9740053,49.4740057 82.918,48.334 C81.8619947,47.1939943 80.0980124,46.624 77.626,46.624 C76.7379956,46.624 75.8500044,46.7079992 74.962,46.876 C74.8179993,48.2440068 74.746,49.7439918 74.746,51.376 Z M97.2620005,51.176 L97.2620005,72.164 L100.178001,72.704 C100.274001,73.0880019 100.274001,73.5679971 100.178001,74.144 C98.665993,74.0719996 97.1180085,74.036 95.5340005,74.036 C94.429995,74.036 92.8700106,74.0599998 90.8540005,74.108 C90.7099998,73.6519977 90.7099998,73.1840024 90.8540005,72.704 L93.6980005,72.308 C93.794001,70.9879934 93.8420005,69.4640086 93.8420005,67.736 L93.8420005,47.108 L90.8900005,46.748 C90.7940001,46.3879982 90.7940001,45.9320028 90.8900005,45.38 C92.5460088,45.2599994 94.6099882,45.0080019 97.0820005,44.624 C97.2980016,44.8640012 97.4180004,45.1039988 97.4420005,45.344 C97.3219999,45.9680031 97.2620005,47.9119837 97.2620005,51.176 Z M118.89,54.344 L118.89,68.456 C118.89,70.064008 118.926,71.1919968 118.998,71.84 L121.842,72.2 C121.914001,72.5840019 121.914001,73.0399974 121.842,73.568 C120.089992,73.6400004 118.26601,73.8079987 116.37,74.072 C116.202,73.9039992 116.082001,73.6760014 116.01,73.388 L115.83,70.184 C114.821995,71.4800065 113.784006,72.4879964 112.716,73.208 C111.647995,73.9280036 110.394008,74.288 108.954,74.288 C107.489993,74.288 106.260005,73.9160037 105.264,73.172 C104.267995,72.4279963 103.77,71.156009 103.77,69.356 L103.77,61.364 C103.77,58.6279863 103.734001,56.8760038 103.662,56.108 L100.818,55.748 C100.722,55.3879982 100.722,54.9320028 100.818,54.38 C102.474009,54.2599994 104.537988,54.0080019 107.01,53.624 C107.226001,53.8640012 107.346,54.1039988 107.37,54.344 C107.25,54.9680031 107.19,59.3719591 107.19,67.556 C107.19,69.2360084 107.387998,70.4299965 107.784,71.138 C108.180002,71.8460035 108.917995,72.2 109.998,72.2 C112.01401,72.2 113.837992,71.000012 115.47,68.6 L115.47,61.328 C115.47,58.6159864 115.434001,56.8760038 115.362,56.108 L112.518,55.748 C112.422,55.3879982 112.422,54.9320028 112.518,54.38 C113.958008,54.2839995 115.961988,54.032002 118.53,53.624 C118.746001,53.8640012 118.866,54.1039988 118.89,54.344 Z M131.118,72.704 C132.414006,72.704 133.373997,72.404003 133.998,71.804 C134.622003,71.203997 134.934,70.508004 134.934,69.716 C134.934,69.2599977 134.862001,68.8400019 134.718,68.456 C134.573999,68.0719981 134.340002,67.7000018 134.016,67.34 C133.691998,66.9799982 133.266003,66.6260017 132.738,66.278 C132.209997,65.9299983 131.550004,65.552002 130.758,65.144 C129.773995,64.6399975 128.928004,64.1600023 128.22,63.704 C127.511996,63.2479977 126.930002,62.7680025 126.474,62.264 C126.017998,61.7599975 125.676001,61.2200029 125.448,60.644 C125.219999,60.0679971 125.106,59.4200036 125.106,58.7 C125.106,57.8359957 125.261998,57.0860032 125.574,56.45 C125.886002,55.8139968 126.323997,55.2860021 126.888,54.866 C127.452003,54.4459979 128.117996,54.134001 128.886,53.93 C129.654004,53.725999 130.505995,53.624 131.442,53.624 C133.314009,53.624 135.137991,54.0799954 136.914,54.992 L136.914,59.6 L135.222,59.6 L134.43,55.712 C133.373995,55.2079975 132.258006,54.956 131.082,54.956 C129.11399,54.956 128.13,55.759992 128.13,57.368 C128.13,58.2320043 128.453997,59.0239964 129.102,59.744 C129.750003,60.4640036 130.793993,61.1839964 132.234,61.904 C133.218005,62.4080025 134.081996,62.8879977 134.826,63.344 C135.570004,63.8000023 136.187998,64.2799975 136.68,64.784 C137.172002,65.2880025 137.543999,65.8339971 137.796,66.422 C138.048001,67.0100029 138.174,67.6759963 138.174,68.42 C138.174,69.2600042 137.994002,70.0399964 137.634,70.76 C137.273998,71.4800036 136.770003,72.0979974 136.122,72.614 C135.473997,73.1300026 134.694005,73.5379985 133.782,73.838 C132.869995,74.1380015 131.862006,74.288 130.758,74.288 C128.621989,74.288 126.618009,73.8320046 124.746,72.92 L124.746,68.312 L126.438,68.312 L127.23,71.876 C128.454006,72.4280028 129.749993,72.704 131.118,72.704 Z" id="oinMarket-Plus" fill="#0C426E"></path>
            <g id="Group">
                <path d="M18.7969939,2.30345852 C13.0076037,2.53486984 8.57971492,4.09138887 5.5133275,6.97301562 C2.44694007,9.85464236 0.774921677,14.1442888 0.49727232,19.8419548" id="Path" stroke="#0C426E" stroke-width="6"></path>
                <g id="Group-2" transform="translate(117.000000, 47.000000)" fill="#0C426E">
                    <rect id="Rectangle" x="0" y="30" width="27" height="3"></rect>
                    <rect id="Rectangle-Copy" transform="translate(25.500000, 19.500000) rotate(-90.000000) translate(-25.500000, -19.500000) " x="12" y="18" width="27" height="3"></rect>
                    <polygon id="Triangle" points="25.3634837 0 30.7269674 6.26906588 20 6.26906588"></polygon>
                </g>
                <path d="M18.6744685,8.09038229 C14.3691919,8.2722858 11.2563099,9.34794638 9.33582257,11.3173641 C7.41533522,13.2867817 6.44225922,16.0685487 6.41659457,19.6626648" id="Path" stroke="#0C426E" stroke-width="4"></path>
                <circle id="Oval" fill="#0C426E" cx="22.5" cy="1.5" r="1.5"></circle>
                <circle id="Oval-Copy" fill="#0C426E" cx="21.5" cy="4.5" r="1.5"></circle>
                <circle id="Oval-Copy-2" fill="#0C426E" cx="20.4" cy="7.39999998" r="1.39999998"></circle>
                <path d="M24.3024816,3.79908605 C25.4729296,4.27238161 26.5717159,4.88592111 27.5988405,5.63970456 C28.625965,6.39348802 29.5222227,7.2440661 30.2876135,8.19143881" id="Path-2" stroke="#0C426E" stroke-width="5"></path>
                <path d="M22,9 C23.1842283,9.54972807 23.9918665,9.97048603 24.4229147,10.2622739 C24.8539628,10.5540617 25.5218752,11.1321429 26.426652,11.9965175" id="Path-3" stroke="#0C426E" stroke-width="4"></path>
                <path d="M6.49303517,21.0406529 C6.61456051,23.9076537 8.20224584,26.467386 11.2560911,28.7198496 C15.4855885,31.4514571 20.2704804,31.4514571 25.6107668,28.7198496" id="Path-4" stroke="#0C426E" stroke-width="4"></path>
                <path d="M0.487428428,20.9699097 C0.678604651,26.9012981 3.74468064,31.4744923 9.68565638,34.6894924 C13.6857909,36.6587424 17.1665133,36.8853648 20.5019209,36.5443241 C22.4220647,36.3479922 24.9956701,35.5334172 28.2227372,34.1005991" id="Path-5" stroke="#0C426E" stroke-width="6"></path>
            </g>
        </g>
    </g>
</svg>