<svg xmlns="http://www.w3.org/2000/svg" xmlns:xlink="http://www.w3.org/1999/xlink" width="150" height="150" viewBox="0 0 150 150"><defs><path id="mmz6a" d="M372 4932v-150h150v150z"/><path id="mmz6c" d="M372 4896.8v-18.4h150v18.4zm33.17-7.78c1.22 0 2.18-.31 2.88-.93a3.14 3.14 0 0 0 1.05-2.47c0-1.03-.35-1.85-1.05-2.48a4.17 4.17 0 0 0-2.88-.94h-4.07v10.7h2.13v-3.88zm-1.97-5.22h1.96c.61 0 1.07.17 1.38.5.3.34.46.76.46 1.27 0 .5-.16.92-.47 1.24-.3.33-.76.49-1.37.49h-1.96zm21.65-1.8h-1.95v11h6.3v-1.7h-4.35zm24.7 11h2.25l-3.6-11H446l-3.6 11h2.24l.72-2.37h3.47zm-2.77-7.9h.05l1.17 3.9h-2.4zm23.81 4.2c0 .7-.15 1.22-.47 1.55-.32.34-.8.5-1.43.5-.68 0-1.2-.25-1.59-.77a3.33 3.33 0 0 1-.56-2.02v-2.13c0-.82.18-1.49.53-2 .36-.52.86-.78 1.5-.78.7 0 1.2.17 1.54.5.33.34.5.85.5 1.54h2.07l.02-.05a3.29 3.29 0 0 0-1.07-2.69 4.5 4.5 0 0 0-3.05-.95c-1.25 0-2.26.41-3.03 1.24a4.52 4.52 0 0 0-1.15 3.2v2.12c0 1.31.4 2.38 1.18 3.2a4.1 4.1 0 0 0 3.1 1.24c1.26 0 2.25-.32 2.96-.97a3.35 3.35 0 0 0 1.04-2.68l-.01-.04zm21.49-2.84h-3.82v-2.76h4.53v-1.7h-6.59v11h6.6v-1.7h-4.54v-3.14h3.82z"/><path id="mmz6d" d="M404.6 4816.2l6.85-3.95 24.05 41.65-6.85 3.95z"/><path id="mmz6e" d="M442.28 4841.37c0 7.55-2.03 13.78-6.1 18.68-4.05 4.9-9.34 7.35-15.84 7.35s-11.75-2.46-15.79-7.37c-4.03-4.92-6.05-11.14-6.05-18.66v-11.04c0-7.5 2.01-13.7 6.04-18.64 4.02-4.93 9.26-7.39 15.72-7.39 6.51 0 11.8 2.46 15.9 7.4 4.08 4.92 6.12 11.13 6.12 18.63zm-10.49-11.12c0-4.78-1.02-8.7-3.06-11.75a9.65 9.65 0 0 0-8.47-4.6 9.37 9.37 0 0 0-8.3 4.6c-1.98 3.06-2.97 6.97-2.97 11.75v11.12c0 4.86 1 8.82 2.99 11.88 1.99 3.06 4.78 4.59 8.36 4.59 3.6 0 6.4-1.53 8.43-4.6 2.01-3.05 3.02-7.01 3.02-11.87zm63.21 36.38h-10.72l-21.56-41.9-.22.04v41.86h-10.72v-62.13h10.72l21.56 41.86.22-.04v-41.82H495z"/><clipPath id="mmz6b"><use fill="#fff" xlink:href="#mmz6a"/></clipPath></defs><g><g transform="translate(-372 -4782)"><use fill="#fff" fill-opacity="0" stroke="#fff" stroke-miterlimit="50" stroke-width="2" clip-path="url(&quot;#mmz6b&quot;)" xlink:href="#mmz6a"/></g><g transform="translate(-372 -4782)"><use fill="#fff" xlink:href="#mmz6c"/></g><g transform="translate(-372 -4782)"><use fill="#fff" xlink:href="#mmz6d"/></g><g transform="translate(-372 -4782)"><use fill="#fff" xlink:href="#mmz6e"/></g></g></svg>